<mxfile host="app.diagrams.net" agent="Mozilla/5.0 (Windows NT 10.0; Win64; x64) AppleWebKit/537.36 (KHTML, like Gecko) Chrome/137.0.0.0 Safari/537.36" version="27.1.1">
  <diagram name="Page-1" id="V2PUV_ZSG1-KUY_Ggp1C">
    <mxGraphModel dx="1665" dy="1912" grid="1" gridSize="10" guides="1" tooltips="1" connect="1" arrows="1" fold="1" page="1" pageScale="1" pageWidth="827" pageHeight="1169" math="0" shadow="0">
      <root>
        <mxCell id="0" />
        <mxCell id="1" parent="0" />
        <mxCell id="XfRLjAlsuEZoWjuT8RvJ-4" style="edgeStyle=orthogonalEdgeStyle;rounded=0;orthogonalLoop=1;jettySize=auto;html=1;entryX=0.5;entryY=0;entryDx=0;entryDy=0;" edge="1" parent="1" source="XfRLjAlsuEZoWjuT8RvJ-2">
          <mxGeometry relative="1" as="geometry">
            <mxPoint x="407" y="110" as="targetPoint" />
          </mxGeometry>
        </mxCell>
        <mxCell id="XfRLjAlsuEZoWjuT8RvJ-2" value="start" style="ellipse;whiteSpace=wrap;html=1;" vertex="1" parent="1">
          <mxGeometry x="354" y="20" width="106" height="50" as="geometry" />
        </mxCell>
        <mxCell id="XfRLjAlsuEZoWjuT8RvJ-6" style="edgeStyle=orthogonalEdgeStyle;rounded=0;orthogonalLoop=1;jettySize=auto;html=1;entryX=0.5;entryY=0;entryDx=0;entryDy=0;" edge="1" parent="1" target="XfRLjAlsuEZoWjuT8RvJ-5">
          <mxGeometry relative="1" as="geometry">
            <mxPoint x="407" y="170" as="sourcePoint" />
          </mxGeometry>
        </mxCell>
        <mxCell id="XfRLjAlsuEZoWjuT8RvJ-9" style="edgeStyle=orthogonalEdgeStyle;rounded=0;orthogonalLoop=1;jettySize=auto;html=1;entryX=0.5;entryY=0;entryDx=0;entryDy=0;" edge="1" parent="1" source="XfRLjAlsuEZoWjuT8RvJ-5" target="XfRLjAlsuEZoWjuT8RvJ-7">
          <mxGeometry relative="1" as="geometry" />
        </mxCell>
        <mxCell id="XfRLjAlsuEZoWjuT8RvJ-5" value="A &amp;gt; B" style="rhombus;whiteSpace=wrap;html=1;" vertex="1" parent="1">
          <mxGeometry x="367" y="230" width="80" height="80" as="geometry" />
        </mxCell>
        <mxCell id="XfRLjAlsuEZoWjuT8RvJ-16" style="edgeStyle=orthogonalEdgeStyle;rounded=0;orthogonalLoop=1;jettySize=auto;html=1;entryX=0;entryY=0.5;entryDx=0;entryDy=0;" edge="1" parent="1" source="XfRLjAlsuEZoWjuT8RvJ-7" target="XfRLjAlsuEZoWjuT8RvJ-14">
          <mxGeometry relative="1" as="geometry" />
        </mxCell>
        <mxCell id="XfRLjAlsuEZoWjuT8RvJ-7" value="A is greater" style="shape=parallelogram;perimeter=parallelogramPerimeter;whiteSpace=wrap;html=1;fixedSize=1;" vertex="1" parent="1">
          <mxGeometry x="150" y="330" width="120" height="60" as="geometry" />
        </mxCell>
        <mxCell id="XfRLjAlsuEZoWjuT8RvJ-15" style="edgeStyle=orthogonalEdgeStyle;rounded=0;orthogonalLoop=1;jettySize=auto;html=1;entryX=1;entryY=0.5;entryDx=0;entryDy=0;" edge="1" parent="1" source="XfRLjAlsuEZoWjuT8RvJ-8" target="XfRLjAlsuEZoWjuT8RvJ-14">
          <mxGeometry relative="1" as="geometry" />
        </mxCell>
        <mxCell id="XfRLjAlsuEZoWjuT8RvJ-8" value="B is greater" style="shape=parallelogram;perimeter=parallelogramPerimeter;whiteSpace=wrap;html=1;fixedSize=1;" vertex="1" parent="1">
          <mxGeometry x="530" y="330" width="120" height="60" as="geometry" />
        </mxCell>
        <mxCell id="XfRLjAlsuEZoWjuT8RvJ-10" style="edgeStyle=orthogonalEdgeStyle;rounded=0;orthogonalLoop=1;jettySize=auto;html=1;entryX=0.575;entryY=-0.05;entryDx=0;entryDy=0;entryPerimeter=0;" edge="1" parent="1" source="XfRLjAlsuEZoWjuT8RvJ-5" target="XfRLjAlsuEZoWjuT8RvJ-8">
          <mxGeometry relative="1" as="geometry" />
        </mxCell>
        <mxCell id="XfRLjAlsuEZoWjuT8RvJ-11" value="true" style="text;html=1;align=center;verticalAlign=middle;resizable=0;points=[];autosize=1;strokeColor=none;fillColor=none;" vertex="1" parent="1">
          <mxGeometry x="280" y="248" width="40" height="30" as="geometry" />
        </mxCell>
        <mxCell id="XfRLjAlsuEZoWjuT8RvJ-12" value="false" style="text;html=1;align=center;verticalAlign=middle;resizable=0;points=[];autosize=1;strokeColor=none;fillColor=none;" vertex="1" parent="1">
          <mxGeometry x="505" y="250" width="50" height="30" as="geometry" />
        </mxCell>
        <mxCell id="XfRLjAlsuEZoWjuT8RvJ-13" value="A = 20;&lt;div&gt;B= 30;&lt;/div&gt;" style="text;html=1;align=center;verticalAlign=middle;resizable=0;points=[];autosize=1;strokeColor=none;fillColor=none;" vertex="1" parent="1">
          <mxGeometry x="230" y="3" width="60" height="40" as="geometry" />
        </mxCell>
        <mxCell id="XfRLjAlsuEZoWjuT8RvJ-17" style="edgeStyle=orthogonalEdgeStyle;rounded=0;orthogonalLoop=1;jettySize=auto;html=1;" edge="1" parent="1" source="XfRLjAlsuEZoWjuT8RvJ-14">
          <mxGeometry relative="1" as="geometry">
            <mxPoint x="400.5" y="510" as="targetPoint" />
          </mxGeometry>
        </mxCell>
        <mxCell id="XfRLjAlsuEZoWjuT8RvJ-14" value="" style="ellipse;whiteSpace=wrap;html=1;aspect=fixed;" vertex="1" parent="1">
          <mxGeometry x="380" y="413" width="41" height="41" as="geometry" />
        </mxCell>
        <mxCell id="XfRLjAlsuEZoWjuT8RvJ-18" style="edgeStyle=orthogonalEdgeStyle;rounded=0;orthogonalLoop=1;jettySize=auto;html=1;" edge="1" parent="1">
          <mxGeometry relative="1" as="geometry">
            <mxPoint x="394" y="990" as="targetPoint" />
            <mxPoint x="394.5" y="934" as="sourcePoint" />
          </mxGeometry>
        </mxCell>
        <mxCell id="XfRLjAlsuEZoWjuT8RvJ-19" value="Stop" style="ellipse;whiteSpace=wrap;html=1;" vertex="1" parent="1">
          <mxGeometry x="347.5" y="500" width="106" height="50" as="geometry" />
        </mxCell>
        <mxCell id="XfRLjAlsuEZoWjuT8RvJ-21" value="A, B" style="rounded=0;whiteSpace=wrap;html=1;" vertex="1" parent="1">
          <mxGeometry x="537" y="-100" width="120" height="60" as="geometry" />
        </mxCell>
        <mxCell id="XfRLjAlsuEZoWjuT8RvJ-22" value="A B" style="shape=parallelogram;perimeter=parallelogramPerimeter;whiteSpace=wrap;html=1;fixedSize=1;" vertex="1" parent="1">
          <mxGeometry x="320" y="110" width="180" height="60" as="geometry" />
        </mxCell>
      </root>
    </mxGraphModel>
  </diagram>
</mxfile>
